<svg width="49" height="48" viewBox="0 0 49 48" fill="none" xmlns="http://www.w3.org/2000/svg">
<path d="M0.5 24C0.5 10.7452 11.2452 0 24.5 0C37.7548 0 48.5 10.7452 48.5 24C48.5 37.2548 37.7548 48 24.5 48C11.2452 48 0.5 37.2548 0.5 24Z" fill="#D1FAE5"/>
<path d="M20.3242 16.0313L19.918 17.25H17C15.6211 17.25 14.5 18.3711 14.5 19.75V29.75C14.5 31.1289 15.6211 32.25 17 32.25H32C33.3789 32.25 34.5 31.1289 34.5 29.75V19.75C34.5 18.3711 33.3789 17.25 32 17.25H29.082L28.6758 16.0313C28.4219 15.2656 27.707 14.75 26.8984 14.75H22.1016C21.293 14.75 20.5781 15.2656 20.3242 16.0313ZM24.5 21C25.4946 21 26.4484 21.3951 27.1517 22.0983C27.8549 22.8016 28.25 23.7554 28.25 24.75C28.25 25.7446 27.8549 26.6984 27.1517 27.4017C26.4484 28.1049 25.4946 28.5 24.5 28.5C23.5054 28.5 22.5516 28.1049 21.8483 27.4017C21.1451 26.6984 20.75 25.7446 20.75 24.75C20.75 23.7554 21.1451 22.8016 21.8483 22.0983C22.5516 21.3951 23.5054 21 24.5 21Z" fill="#059669"/>
</svg>
