<svg width="49" height="48" viewBox="0 0 49 48" fill="none" xmlns="http://www.w3.org/2000/svg">
<path d="M0.828125 24C0.828125 10.7452 11.5733 0 24.8281 0C38.083 0 48.8281 10.7452 48.8281 24C48.8281 37.2548 38.083 48 24.8281 48C11.5733 48 0.828125 37.2548 0.828125 24Z" fill="#D1FAE5"/>
<path d="M20.4531 27.25C24.9413 27.25 28.5781 24.1719 28.5781 20.375C28.5781 16.5781 24.9413 13.5 20.4531 13.5C15.9648 13.5 12.3281 16.5781 12.3281 20.375C12.3281 21.8828 12.9023 23.2773 13.8749 24.4141C13.7382 24.7812 13.5351 25.1055 13.3203 25.3789C13.1328 25.6211 12.9413 25.8086 12.8007 25.9375C12.7304 26 12.6718 26.0508 12.6328 26.082C12.6132 26.0977 12.5976 26.1094 12.5898 26.1133L12.582 26.1211C12.3671 26.2812 12.2734 26.5625 12.3593 26.8164C12.4453 27.0703 12.6835 27.25 12.9531 27.25C13.8046 27.25 14.664 27.0312 15.3788 26.7617C15.7382 26.625 16.0742 26.4727 16.3671 26.3164C17.5663 26.9102 18.9609 27.25 20.4531 27.25ZM29.8281 20.375C29.8281 24.7617 25.957 28.0664 21.371 28.4609C22.3203 31.3672 25.4687 33.5 29.2031 33.5C30.6953 33.5 32.0898 33.1602 33.2929 32.5664C33.5859 32.7227 33.9179 32.875 34.2773 33.0117C34.9921 33.2812 35.8515 33.5 36.7031 33.5C36.9726 33.5 37.2148 33.3242 37.2968 33.0664C37.3788 32.8086 37.289 32.5273 37.0703 32.3672L37.0624 32.3594C37.0546 32.3516 37.039 32.3438 37.0195 32.3281C36.9804 32.2969 36.9218 32.25 36.8515 32.1836C36.7109 32.0547 36.5195 31.8672 36.332 31.625C36.1171 31.3516 35.914 31.0234 35.7773 30.6602C36.7499 29.5273 37.3242 28.1328 37.3242 26.6211C37.3242 22.9961 34.0078 20.0234 29.8007 19.7656C29.8163 19.9648 29.8242 20.168 29.8242 20.3711L29.8281 20.375Z" fill="#059669"/>
</svg>
