<svg width="49" height="48" viewBox="0 0 49 48" fill="none" xmlns="http://www.w3.org/2000/svg">
<path d="M0.15625 24C0.15625 10.7452 10.9014 0 24.1562 0C37.4111 0 48.1562 10.7452 48.1562 24C48.1562 37.2548 37.4111 48 24.1562 48C10.9014 48 0.15625 37.2548 0.15625 24Z" fill="#D1FAE5"/>
<path d="M30.4062 21.625C30.4062 23.418 29.8242 25.0742 28.8438 26.418L33.7891 31.3672C34.2773 31.8555 34.2773 32.6484 33.7891 33.1367C33.3008 33.625 32.5078 33.625 32.0195 33.1367L27.0742 28.1875C25.7305 29.1719 24.0742 29.75 22.2812 29.75C17.793 29.75 14.1562 26.1133 14.1562 21.625C14.1562 17.1367 17.793 13.5 22.2812 13.5C26.7695 13.5 30.4062 17.1367 30.4062 21.625ZM22.2812 27.25C23.0199 27.25 23.7514 27.1045 24.4338 26.8218C25.1163 26.5391 25.7364 26.1248 26.2587 25.6025C26.7811 25.0801 27.1954 24.4601 27.4781 23.7776C27.7608 23.0951 27.9062 22.3637 27.9062 21.625C27.9062 20.8863 27.7608 20.1549 27.4781 19.4724C27.1954 18.7899 26.7811 18.1699 26.2587 17.6475C25.7364 17.1252 25.1163 16.7109 24.4338 16.4282C23.7514 16.1455 23.0199 16 22.2812 16C21.5426 16 20.8111 16.1455 20.1287 16.4282C19.4462 16.7109 18.8261 17.1252 18.3038 17.6475C17.7814 18.1699 17.3671 18.7899 17.0844 19.4724C16.8017 20.1549 16.6562 20.8863 16.6562 21.625C16.6562 22.3637 16.8017 23.0951 17.0844 23.7776C17.3671 24.4601 17.7814 25.0801 18.3038 25.6025C18.8261 26.1248 19.4462 26.5391 20.1287 26.8218C20.8111 27.1045 21.5426 27.25 22.2812 27.25Z" fill="#059669"/>
</svg>
