<svg width="15" height="21" viewBox="0 0 15 21" fill="none" xmlns="http://www.w3.org/2000/svg">
<g clip-path="url(#clip0_5_602)">
<path d="M2.5 0.5C1.12109 0.5 0 1.62109 0 3V18C0 19.3789 1.12109 20.5 2.5 20.5H12.5C13.8789 20.5 15 19.3789 15 18V6.75H10C9.30859 6.75 8.75 6.19141 8.75 5.5V0.5H2.5ZM10 0.5V5.5H15L10 0.5ZM4.375 10.5H10.625C10.9688 10.5 11.25 10.7812 11.25 11.125C11.25 11.4688 10.9688 11.75 10.625 11.75H4.375C4.03125 11.75 3.75 11.4688 3.75 11.125C3.75 10.7812 4.03125 10.5 4.375 10.5ZM4.375 13H10.625C10.9688 13 11.25 13.2812 11.25 13.625C11.25 13.9688 10.9688 14.25 10.625 14.25H4.375C4.03125 14.25 3.75 13.9688 3.75 13.625C3.75 13.2812 4.03125 13 4.375 13ZM4.375 15.5H10.625C10.9688 15.5 11.25 15.7812 11.25 16.125C11.25 16.4688 10.9688 16.75 10.625 16.75H4.375C4.03125 16.75 3.75 16.4688 3.75 16.125C3.75 15.7812 4.03125 15.5 4.375 15.5Z" fill="#059669"/>
</g>
<defs>
<clipPath id="clip0_5_602">
<rect width="15" height="20" fill="white" transform="translate(0 0.5)"/>
</clipPath>
</defs>
</svg>
