<svg width="36" height="37" viewBox="0 0 36 37" fill="none" xmlns="http://www.w3.org/2000/svg">
<g clip-path="url(#clip0_5_141)">
<path d="M18 0.5C18.3235 0.5 18.6469 0.570313 18.9422 0.703906L32.1821 6.32188C33.7289 6.97578 34.8821 8.50156 34.875 10.3438C34.8399 17.3188 31.9711 30.0805 19.8563 35.8813C18.6821 36.4438 17.318 36.4438 16.1438 35.8813C4.02894 30.0805 1.16019 17.3188 1.12503 10.3438C1.118 8.50156 2.27113 6.97578 3.818 6.32188L17.0649 0.703906C17.3532 0.570313 17.6766 0.5 18 0.5ZM18 5.19688V31.775C27.7032 27.0781 30.3118 16.6789 30.375 10.4422L18 5.19688Z" fill="#059669"/>
</g>
<defs>
<clipPath id="clip0_5_141">
<rect width="36" height="36" fill="white" transform="translate(0 0.5)"/>
</clipPath>
</defs>
</svg>
