<svg width="22" height="24" viewBox="0 0 22 24" fill="none" xmlns="http://www.w3.org/2000/svg">
<g clip-path="url(#clip0_5_349)">
<path d="M6.99375 0.829688C7.24687 0.31875 7.76719 0 8.33438 0H13.9781C14.5453 0 15.0656 0.31875 15.3187 0.829688L15.6562 1.5H20.1562C20.9859 1.5 21.6562 2.17031 21.6562 3C21.6562 3.82969 20.9859 4.5 20.1562 4.5H2.15625C1.32656 4.5 0.65625 3.82969 0.65625 3C0.65625 2.17031 1.32656 1.5 2.15625 1.5H6.65625L6.99375 0.829688ZM2.15625 6H20.1562V21C20.1562 22.6547 18.8109 24 17.1562 24H5.15625C3.50156 24 2.15625 22.6547 2.15625 21V6ZM6.65625 9C6.24375 9 5.90625 9.3375 5.90625 9.75V20.25C5.90625 20.6625 6.24375 21 6.65625 21C7.06875 21 7.40625 20.6625 7.40625 20.25V9.75C7.40625 9.3375 7.06875 9 6.65625 9ZM11.1562 9C10.7437 9 10.4062 9.3375 10.4062 9.75V20.25C10.4062 20.6625 10.7437 21 11.1562 21C11.5688 21 11.9062 20.6625 11.9062 20.25V9.75C11.9062 9.3375 11.5688 9 11.1562 9ZM15.6562 9C15.2437 9 14.9062 9.3375 14.9062 9.75V20.25C14.9062 20.6625 15.2437 21 15.6562 21C16.0688 21 16.4062 20.6625 16.4062 20.25V9.75C16.4062 9.3375 16.0688 9 15.6562 9Z" fill="#059669"/>
</g>
<defs>
<clipPath id="clip0_5_349">
<rect width="21" height="24" fill="white" transform="translate(0.65625)"/>
</clipPath>
</defs>
</svg>
