<svg width="21" height="21" viewBox="0 0 21 21" fill="none" xmlns="http://www.w3.org/2000/svg">
<g clip-path="url(#clip0_5_610)">
<path d="M10.6562 0.5C13.3084 0.5 15.852 1.55357 17.7273 3.42893C19.6027 5.3043 20.6562 7.84784 20.6562 10.5C20.6562 13.1522 19.6027 15.6957 17.7273 17.5711C15.852 19.4464 13.3084 20.5 10.6562 20.5C8.00409 20.5 5.46055 19.4464 3.58518 17.5711C1.70982 15.6957 0.65625 13.1522 0.65625 10.5C0.65625 7.84784 1.70982 5.3043 3.58518 3.42893C5.46055 1.55357 8.00409 0.5 10.6562 0.5ZM9.71875 5.1875V10.5C9.71875 10.8125 9.875 11.1055 10.1367 11.2812L13.8867 13.7812C14.3164 14.0703 14.8984 13.9531 15.1875 13.5195C15.4766 13.0859 15.3594 12.5078 14.9258 12.2188L11.5938 10V5.1875C11.5938 4.66797 11.1758 4.25 10.6562 4.25C10.1367 4.25 9.71875 4.66797 9.71875 5.1875Z" fill="#D97706"/>
</g>
<defs>
<clipPath id="clip0_5_610">
<rect width="20" height="20" fill="white" transform="translate(0.65625 0.5)"/>
</clipPath>
</defs>
</svg>
