<svg width="31" height="24" viewBox="0 0 31 24" fill="none" xmlns="http://www.w3.org/2000/svg">
<g clip-path="url(#clip0_5_353)">
<path d="M1.98438 6.75C1.98438 10.4766 5.00781 13.5 8.73438 13.5H14.5141C15.5734 14.4328 16.9609 15 18.4844 15C20.0078 15 21.3953 14.4328 22.4547 13.5H23.7344C26.6359 13.5 28.9844 11.1516 28.9844 8.25C28.9844 5.34844 26.6359 3 23.7344 3C23.2328 3 22.75 3.07031 22.2906 3.20156C21.2875 1.29844 19.2859 0 16.9844 0C15.4563 0 14.0594 0.571875 12.9953 1.51406C11.8328 0.567187 10.3516 0 8.73438 0C5.00781 0 1.98438 3.02344 1.98438 6.75ZM29.3594 17.25H13.6094C12.9859 17.25 12.4844 17.7516 12.4844 18.375C12.4844 18.9984 12.9859 19.5 13.6094 19.5H29.3594C29.9828 19.5 30.4844 18.9984 30.4844 18.375C30.4844 17.7516 29.9828 17.25 29.3594 17.25ZM26.3594 21.75H21.1094C20.4859 21.75 19.9844 22.2516 19.9844 22.875C19.9844 23.4984 20.4859 24 21.1094 24H26.3594C26.9828 24 27.4844 23.4984 27.4844 22.875C27.4844 22.2516 26.9828 21.75 26.3594 21.75ZM17.3594 21.75H1.60938C0.985937 21.75 0.484375 22.2516 0.484375 22.875C0.484375 23.4984 0.985937 24 1.60938 24H17.3594C17.9828 24 18.4844 23.4984 18.4844 22.875C18.4844 22.2516 17.9828 21.75 17.3594 21.75ZM10.9844 18.375C10.9844 17.7516 10.4828 17.25 9.85938 17.25H4.98438C4.36094 17.25 3.85938 17.7516 3.85938 18.375C3.85938 18.9984 4.36094 19.5 4.98438 19.5H9.85938C10.4828 19.5 10.9844 18.9984 10.9844 18.375Z" fill="#4B5563"/>
</g>
<defs>
<clipPath id="clip0_5_353">
<rect width="30" height="24" fill="white" transform="translate(0.484375)"/>
</clipPath>
</defs>
</svg>
