<svg width="17" height="16" viewBox="0 0 17 16" fill="none" xmlns="http://www.w3.org/2000/svg">
<g clip-path="url(#clip0_79_209)">
<path d="M15.175 0.678076C14.4906 -0.00629884 13.3844 -0.00629884 12.7 0.678076L11.7594 1.61558L14.8188 4.67495L15.7594 3.73433C16.4438 3.04995 16.4438 1.9437 15.7594 1.25933L15.175 0.678076ZM5.825 7.55308C5.63437 7.7437 5.4875 7.97808 5.40312 8.23745L4.47813 11.0125C4.3875 11.2812 4.45938 11.5781 4.65938 11.7812C4.85938 11.9843 5.15625 12.0531 5.42812 11.9625L8.20312 11.0375C8.45938 10.9531 8.69375 10.8062 8.8875 10.6156L14.1156 5.38433L11.0531 2.32183L5.825 7.55308ZM3.4375 1.99995C1.78125 1.99995 0.4375 3.3437 0.4375 4.99995V13C0.4375 14.6562 1.78125 16 3.4375 16H11.4375C13.0938 16 14.4375 14.6562 14.4375 13V9.99995C14.4375 9.44683 13.9906 8.99995 13.4375 8.99995C12.8844 8.99995 12.4375 9.44683 12.4375 9.99995V13C12.4375 13.5531 11.9906 14 11.4375 14H3.4375C2.88438 14 2.4375 13.5531 2.4375 13V4.99995C2.4375 4.44683 2.88438 3.99995 3.4375 3.99995H6.4375C6.99062 3.99995 7.4375 3.55308 7.4375 2.99995C7.4375 2.44683 6.99062 1.99995 6.4375 1.99995H3.4375Z" fill="#9CA3AF"/>
</g>
<defs>
<clipPath id="clip0_79_209">
<rect width="16" height="16" fill="white" transform="translate(0.4375)"/>
</clipPath>
</defs>
</svg>
