<svg width="20" height="16" viewBox="0 0 20 16" fill="none" xmlns="http://www.w3.org/2000/svg">
<path d="M1.21268 0.159551C0.887676 -0.0966993 0.415801 -0.0373243 0.159551 0.287676C-0.0966993 0.612676 -0.0373243 1.08455 0.287676 1.3408L18.7877 15.8408C19.1127 16.097 19.5846 16.0377 19.8408 15.7127C20.0971 15.3877 20.0377 14.9158 19.7127 14.6596L16.4252 12.0846C17.6627 10.8158 18.5002 9.39392 18.9221 8.38455C19.0252 8.13768 19.0252 7.86268 18.9221 7.6158C18.4564 6.50018 17.4783 4.87518 16.0158 3.51893C14.5471 2.15018 12.5252 1.00018 10.0002 1.00018C7.86893 1.00018 6.09393 1.82205 4.70955 2.90018L1.21268 0.159551ZM5.93143 3.85643C7.06268 3.0533 8.42205 2.50018 10.0002 2.50018C12.0377 2.50018 13.7127 3.42518 14.9971 4.6158C16.2002 5.73455 17.0314 7.06268 17.4564 8.00018C17.0627 8.87518 16.3127 10.0877 15.2408 11.1533L13.5596 9.83455C13.8439 9.28455 14.0033 8.66268 14.0033 8.00018C14.0033 5.7908 12.2127 4.00018 10.0033 4.00018C8.99705 4.00018 8.07518 4.37205 7.37205 4.98455L5.93143 3.85643ZM12.3408 8.88143L9.79393 6.88455C9.92518 6.61893 10.0002 6.3158 10.0002 6.00018C10.0002 5.8283 9.9783 5.65955 9.93768 5.50018C9.95955 5.50018 9.9783 5.50018 10.0002 5.50018C11.3814 5.50018 12.5002 6.61893 12.5002 8.00018C12.5002 8.30955 12.4439 8.60643 12.3408 8.88143ZM12.6346 12.9533C11.8377 13.2939 10.9596 13.5002 10.0002 13.5002C7.96268 13.5002 6.28768 12.5752 5.0033 11.3846C3.80018 10.2658 2.96893 8.93768 2.54393 8.00018C2.8033 7.42518 3.2158 6.7033 3.77518 5.97518L2.59705 5.04705C1.88455 5.97518 1.37518 6.90018 1.0783 7.6158C0.975176 7.86268 0.975176 8.13768 1.0783 8.38455C1.54393 9.50018 2.52205 11.1252 3.98455 12.4814C5.4533 13.8502 7.47518 15.0002 10.0002 15.0002C11.4939 15.0002 12.8096 14.5971 13.9439 13.9846L12.6346 12.9533ZM6.00018 8.00018C6.00018 10.2096 7.7908 12.0002 10.0002 12.0002C10.4158 12.0002 10.8158 11.9377 11.1939 11.8189L9.43768 10.4377C8.7033 10.2689 8.0908 9.77518 7.75955 9.1158L6.00643 7.73455C6.00018 7.82205 5.99705 7.90955 5.99705 8.00018H6.00018Z" fill="#9CA3AF"/>
</svg>
