<svg width="19" height="16" viewBox="0 0 19 16" fill="none" xmlns="http://www.w3.org/2000/svg">
<g clip-path="url(#clip0_79_207)">
<path d="M9.43745 1C6.91245 1 4.89058 2.15 3.4187 3.51875C1.9562 4.875 0.978076 6.5 0.515576 7.61562C0.412451 7.8625 0.412451 8.1375 0.515576 8.38437C0.978076 9.5 1.9562 11.125 3.4187 12.4812C4.89058 13.85 6.91245 15 9.43745 15C11.9625 15 13.9843 13.85 15.4562 12.4812C16.9187 11.1219 17.8968 9.5 18.3624 8.38437C18.4656 8.1375 18.4656 7.8625 18.3624 7.61562C17.8968 6.5 16.9187 4.875 15.4562 3.51875C13.9843 2.15 11.9625 1 9.43745 1ZM4.93745 8C4.93745 6.80653 5.41156 5.66193 6.25547 4.81802C7.09938 3.97411 8.24398 3.5 9.43745 3.5C10.6309 3.5 11.7755 3.97411 12.6194 4.81802C13.4633 5.66193 13.9375 6.80653 13.9375 8C13.9375 9.19347 13.4633 10.3381 12.6194 11.182C11.7755 12.0259 10.6309 12.5 9.43745 12.5C8.24398 12.5 7.09938 12.0259 6.25547 11.182C5.41156 10.3381 4.93745 9.19347 4.93745 8ZM9.43745 6C9.43745 7.10313 8.54058 8 7.43745 8C7.21558 8 7.00308 7.9625 6.80308 7.89687C6.6312 7.84062 6.4312 7.94688 6.43745 8.12813C6.44683 8.34375 6.47808 8.55937 6.53745 8.775C6.96558 10.375 8.61245 11.325 10.2125 10.8969C11.8125 10.4688 12.7625 8.82188 12.3343 7.22188C11.9875 5.925 10.8406 5.05312 9.56558 5C9.38433 4.99375 9.27808 5.19062 9.33433 5.36562C9.39995 5.56562 9.43745 5.77812 9.43745 6Z" fill="#9CA3AF"/>
</g>
<defs>
<clipPath id="clip0_79_207">
<rect width="18" height="16" fill="white" transform="translate(0.4375)"/>
</clipPath>
</defs>
</svg>
