<svg width="39" height="31" viewBox="0 0 39 31" fill="none" xmlns="http://www.w3.org/2000/svg">
<g clip-path="url(#clip0_5_370)">
<path d="M9.1875 28.875C4.5293 28.875 0.75 25.0957 0.75 20.4375C0.75 16.7578 3.10547 13.6289 6.38672 12.4746C6.38086 12.3164 6.375 12.1582 6.375 12C6.375 6.82031 10.5703 2.625 15.75 2.625C19.2246 2.625 22.2539 4.51172 23.877 7.32422C24.7676 6.72656 25.8457 6.375 27 6.375C30.1055 6.375 32.625 8.89453 32.625 12C32.625 12.7148 32.4902 13.3945 32.25 14.0273C35.6719 14.7188 38.25 17.748 38.25 21.375C38.25 25.5176 34.8926 28.875 30.75 28.875H9.1875ZM13.8164 16.1602C13.2656 16.7109 13.2656 17.6016 13.8164 18.1465C14.3672 18.6914 15.2578 18.6973 15.8027 18.1465L18.0879 15.8613V23.7188C18.0879 24.498 18.7148 25.125 19.4941 25.125C20.2734 25.125 20.9004 24.498 20.9004 23.7188V15.8613L23.1855 18.1465C23.7363 18.6973 24.627 18.6973 25.1719 18.1465C25.7168 17.5957 25.7227 16.7051 25.1719 16.1602L20.4844 11.4727C19.9336 10.9219 19.043 10.9219 18.498 11.4727L13.8105 16.1602H13.8164Z" fill="#9CA3AF"/>
</g>
<defs>
<clipPath id="clip0_5_370">
<rect width="37.5" height="30" fill="white" transform="translate(0.75 0.75)"/>
</clipPath>
</defs>
</svg>
