<svg width="18" height="15" viewBox="0 0 18 15" fill="none" xmlns="http://www.w3.org/2000/svg">
<g clip-path="url(#clip0_5_424)">
<path d="M2.6875 4.25C2.6875 3.32174 3.05625 2.4315 3.71263 1.77513C4.369 1.11875 5.25924 0.75 6.1875 0.75C7.11576 0.75 8.006 1.11875 8.66237 1.77513C9.31875 2.4315 9.6875 3.32174 9.6875 4.25C9.6875 5.17826 9.31875 6.0685 8.66237 6.72487C8.006 7.38125 7.11576 7.75 6.1875 7.75C5.25924 7.75 4.369 7.38125 3.71263 6.72487C3.05625 6.0685 2.6875 5.17826 2.6875 4.25ZM0.0625 13.9379C0.0625 11.2445 2.24453 9.0625 4.93789 9.0625H7.43711C10.1305 9.0625 12.3125 11.2445 12.3125 13.9379C12.3125 14.3863 11.9488 14.75 11.5004 14.75H0.874609C0.426172 14.75 0.0625 14.3863 0.0625 13.9379ZM13.8438 9.28125V7.53125H12.0938C11.7301 7.53125 11.4375 7.23867 11.4375 6.875C11.4375 6.51133 11.7301 6.21875 12.0938 6.21875H13.8438V4.46875C13.8438 4.10508 14.1363 3.8125 14.5 3.8125C14.8637 3.8125 15.1562 4.10508 15.1562 4.46875V6.21875H16.9062C17.2699 6.21875 17.5625 6.51133 17.5625 6.875C17.5625 7.23867 17.2699 7.53125 16.9062 7.53125H15.1562V9.28125C15.1562 9.64492 14.8637 9.9375 14.5 9.9375C14.1363 9.9375 13.8438 9.64492 13.8438 9.28125Z" fill="white"/>
</g>
<defs>
<clipPath id="clip0_5_424">
<rect width="17.5" height="14" fill="white" transform="translate(0.0625 0.75)"/>
</clipPath>
</defs>
</svg>
