<svg width="28" height="24" viewBox="0 0 28 24" fill="none" xmlns="http://www.w3.org/2000/svg">
<g clip-path="url(#clip0_5_357)">
<path d="M12.9453 3.27656C13.4657 2.90625 14.1594 2.90625 14.6797 3.27656C15.7344 4.00313 17.0235 4.5 18.3125 4.5C19.5735 4.5 20.9094 3.99375 21.9407 3.27656C22.4985 2.87813 23.2578 2.91094 23.7782 3.35625C24.4532 3.91406 25.3016 4.34063 26.15 4.5375C26.9563 4.725 27.4578 5.53125 27.2703 6.3375C27.0828 7.14375 26.2766 7.64531 25.4703 7.45781C24.3219 7.19063 23.3657 6.68438 22.7422 6.28594C21.3828 7.01719 19.8594 7.5 18.3125 7.5C16.8172 7.5 15.4719 7.03594 14.5438 6.61406C14.2719 6.4875 14.0235 6.36563 13.8125 6.25313C13.6016 6.36563 13.3578 6.49219 13.0813 6.61406C12.1532 7.03594 10.8078 7.5 9.31254 7.5C7.76566 7.5 6.24222 7.01719 4.88285 6.29063C4.25472 6.68438 3.30316 7.19531 2.15472 7.4625C1.34847 7.65 0.542223 7.14844 0.354723 6.34219C0.167223 5.53594 0.668785 4.72969 1.47504 4.54219C2.31879 4.34063 3.17191 3.91406 3.84222 3.35625C4.36254 2.91094 5.12191 2.88281 5.67972 3.27656C6.72035 3.99375 8.0516 4.5 9.31254 4.5C10.6016 4.5 11.8907 4.00313 12.9453 3.27656ZM14.6797 16.7766C15.7344 17.5031 17.0235 18 18.3125 18C19.5735 18 20.9094 17.4938 21.9407 16.7766C22.4985 16.3781 23.2578 16.4109 23.7782 16.8563C24.4532 17.4141 25.3016 17.8406 26.15 18.0375C26.9563 18.225 27.4578 19.0313 27.2703 19.8375C27.0828 20.6438 26.2766 21.1453 25.4703 20.9578C24.3219 20.6906 23.3657 20.1844 22.7422 19.7859C21.3828 20.5172 19.8594 21 18.3125 21C16.8172 21 15.4719 20.5359 14.5438 20.1141C14.2719 19.9875 14.0235 19.8656 13.8125 19.7531C13.6016 19.8656 13.3578 19.9922 13.0813 20.1141C12.1532 20.5359 10.8078 21 9.31254 21C7.76566 21 6.24222 20.5172 4.88285 19.7906C4.25472 20.1844 3.30316 20.6953 2.15472 20.9625C1.34847 21.15 0.542223 20.6484 0.354723 19.8422C0.167223 19.0359 0.668785 18.2297 1.47504 18.0422C2.32347 17.8453 3.17191 17.4188 3.84691 16.8609C4.36722 16.4203 5.1266 16.3875 5.68441 16.7813C6.72035 17.4938 8.0516 18 9.31254 18C10.6016 18 11.8907 17.5031 12.9453 16.7766C13.4657 16.4063 14.1594 16.4063 14.6797 16.7766ZM14.6797 10.0266C15.7344 10.7531 17.0235 11.25 18.3125 11.25C19.5735 11.25 20.9094 10.7438 21.9407 10.0266C22.4985 9.62813 23.2578 9.66094 23.7782 10.1063C24.4532 10.6641 25.3016 11.0906 26.15 11.2875C26.9563 11.475 27.4578 12.2813 27.2703 13.0875C27.0828 13.8938 26.2766 14.3953 25.4703 14.2078C24.3219 13.9406 23.3657 13.4344 22.7422 13.0359C21.3828 13.7672 19.8594 14.25 18.3125 14.25C16.8172 14.25 15.4719 13.7859 14.5438 13.3641C14.2719 13.2375 14.0235 13.1156 13.8125 13.0031C13.6016 13.1156 13.3578 13.2422 13.0813 13.3641C12.1532 13.7859 10.8078 14.25 9.31254 14.25C7.76566 14.25 6.24222 13.7672 4.88285 13.0406C4.25472 13.4344 3.30316 13.9453 2.15472 14.2125C1.34847 14.4 0.542223 13.8984 0.354723 13.0922C0.167223 12.2859 0.668785 11.4797 1.47504 11.2922C2.32347 11.0953 3.17191 10.6688 3.84691 10.1109C4.36722 9.66563 5.1266 9.6375 5.68441 10.0313C6.72035 10.7438 8.0516 11.25 9.31254 11.25C10.6016 11.25 11.8907 10.7531 12.9453 10.0266C13.4657 9.65625 14.1594 9.65625 14.6797 10.0266Z" fill="#4B5563"/>
</g>
<defs>
<clipPath id="clip0_5_357">
<rect width="27" height="24" fill="white" transform="translate(0.3125)"/>
</clipPath>
</defs>
</svg>
